<?xml version="1.0" encoding="UTF-8"?>
<svg xmlns="http://www.w3.org/2000/svg" viewBox="0 0 120 124" width="120" height="124" role="img" aria-label="Laragon">
  <defs>
    <linearGradient id="elephantBody" x1="0" y1="0" x2="0" y2="1">
      <stop offset="0" stop-color="#9fd0ff"/>
      <stop offset="1" stop-color="#5b9bd5"/>
    </linearGradient>
  </defs>
  <g fill="url(#elephantBody)" stroke="#2c4a66" stroke-width="2.5" stroke-linejoin="round">
    <!-- oreilles -->
    <ellipse cx="28" cy="56" rx="23" ry="29"/>
    <ellipse cx="92" cy="56" rx="23" ry="29"/>
    <!-- tête -->
    <circle cx="60" cy="54" r="35"/>
    <!-- trompe -->
    <path d="M60 84 C 58 104, 44 112, 34 106 C 27 102, 29 92, 37 93 C 42 94, 42 99, 39 100"
          fill="none" stroke="url(#elephantBody)" stroke-width="13" stroke-linecap="round"/>
    <path d="M60 84 C 58 104, 44 112, 34 106 C 27 102, 29 92, 37 93 C 42 94, 42 99, 39 100"
          fill="none" stroke="#2c4a66" stroke-width="15.5" stroke-linecap="round" opacity="0"/>
  </g>
  <!-- yeux -->
  <circle cx="47" cy="50" r="4.5" fill="#15243a"/>
  <circle cx="73" cy="50" r="4.5" fill="#15243a"/>
  <!-- reflets yeux -->
  <circle cx="48.4" cy="48.6" r="1.4" fill="#ffffff"/>
  <circle cx="74.4" cy="48.6" r="1.4" fill="#ffffff"/>
</svg>
